<svg xmlns="http://www.w3.org/2000/svg" width="71.178" height="71.11" viewBox="0 0 71.178 71.11">
  <g id="Icon_ionic-md-medal" data-name="Icon ionic-md-medal" transform="translate(-3.375 -3.389)">
    <path id="Path_1" data-name="Path 1" d="M41.958,21.166H3.375L12.632,3.389H53.816Z" transform="translate(0 0)" fill="#0d0d0d"/>
    <path id="Path_2" data-name="Path 2" d="M41.56,35.25A14.817,14.817,0,1,1,26.742,20.433,14.817,14.817,0,0,1,41.56,35.25Z" transform="translate(12.256 24.431)" fill="#0d0d0d"/>
    <path id="Path_3" data-name="Path 3" d="M33.855,46.318,53.549,21.166,41.691,3.389,18.028,38.944a20.582,20.582,0,0,1,14.629,6.074C33.085,45.446,33.479,45.873,33.855,46.318Z" transform="translate(21.004 0)" fill="#0d0d0d"/>
    <path id="Path_4" data-name="Path 4" d="M30.334,26.869,21.181,13.078H3.4L18.819,40.711a20.417,20.417,0,0,1,5.475-9.65A20.822,20.822,0,0,1,30.334,26.869Z" transform="translate(0.04 13.889)" fill="#0d0d0d"/>
  </g>
</svg>
